<?xml version="1.0" standalone="no"?>
<!DOCTYPE svg PUBLIC "-//W3C//DTD SVG 20010904//EN"
 "http://www.w3.org/TR/2001/REC-SVG-20010904/DTD/svg10.dtd">
<svg version="1.0" xmlns="http://www.w3.org/2000/svg"
 width="500.000000pt" height="500.000000pt" viewBox="0 0 500.000000 500.000000"
 preserveAspectRatio="xMidYMid meet">

<g transform="translate(0.000000,500.000000) scale(0.100000,-0.100000)"
fill="#000000" stroke="none">
<path d="M2270 4484 c-147 -15 -415 -86 -555 -149 -168 -75 -333 -169 -425
-241 -251 -200 -414 -390 -558 -654 -166 -303 -249 -704 -222 -1069 28 -371
131 -679 329 -976 111 -168 293 -369 416 -460 22 -17 42 -32 45 -36 11 -12
136 -94 213 -138 186 -106 381 -180 597 -227 202 -44 606 -43 800 1 94 22 125
31 203 57 374 125 699 351 953 663 170 209 332 544 382 790 51 251 62 421 42
655 -41 462 -248 893 -594 1232 -281 276 -640 457 -1056 533 -84 16 -471 28
-570 19z m380 -189 c347 -33 601 -122 882 -307 115 -77 285 -230 383 -347 147
-176 292 -469 350 -704 60 -247 62 -566 6 -842 -73 -359 -295 -720 -601 -978
-240 -202 -527 -344 -800 -396 -147 -28 -187 -31 -364 -31 -266 0 -437 30
-650 115 -146 58 -224 99 -361 191 -124 83 -182 130 -275 224 -260 263 -426
564 -491 895 -81 411 -34 837 128 1160 201 402 470 671 857 856 193 92 371
141 601 164 163 17 159 17 335 0z"/>
<path d="M1653 3970 c-27 -16 -33 -26 -33 -55 0 -25 8 -44 25 -60 20 -21 33
-25 88 -25 35 0 66 -2 69 -5 3 -3 -18 -74 -47 -158 -88 -253 -100 -282 -115
-279 -34 8 -219 -22 -279 -44 -168 -63 -298 -197 -357 -370 -21 -61 -29 -104
-32 -188 -5 -132 6 -191 60 -304 65 -138 212 -265 368 -318 97 -33 256 -34
351 -3 117 38 190 81 265 154 58 57 80 88 117 165 25 52 51 120 57 151 12 55
9 215 -6 287 l-6 32 312 0 312 0 -6 -27 c-17 -70 -18 -239 -2 -308 52 -221
228 -405 441 -461 27 -8 95 -14 150 -14 182 0 318 54 440 175 248 247 246 642
-5 896 -112 113 -213 157 -395 172 -38 3 -41 5 -57 52 -19 56 -96 340 -100
369 -2 15 5 21 31 27 75 16 100 91 45 136 -28 22 -35 23 -210 23 l-181 0 -27
-26 c-31 -32 -34 -72 -7 -105 16 -21 31 -25 98 -29 l78 -5 62 -215 c34 -118
62 -222 62 -230 1 -10 -25 -25 -72 -42 -83 -31 -171 -98 -231 -175 l-41 -52
-386 0 -386 -1 -44 56 c-51 64 -144 136 -206 160 -23 9 -43 21 -43 25 0 5 23
71 51 146 28 76 59 163 69 193 44 133 48 140 90 140 54 0 100 40 100 86 0 28
-6 38 -32 54 -30 18 -51 20 -218 20 -167 0 -188 -2 -217 -20z m52 -755 c116
-30 217 -112 279 -224 39 -72 56 -142 56 -233 0 -181 -100 -338 -269 -421 -63
-31 -71 -32 -186 -32 -116 0 -122 2 -190 34 -128 62 -227 187 -256 321 -14 63
-6 208 13 260 56 150 195 269 348 299 71 14 141 12 205 -4z m1778 0 c93 -20
178 -67 242 -137 141 -152 168 -365 68 -543 -41 -74 -131 -158 -207 -195 -131
-62 -315 -51 -431 25 -252 168 -297 498 -96 717 80 87 200 139 336 147 11 0
50 -6 88 -14z"/>
</g>
</svg>
